<svg width="38" height="43" viewBox="0 0 38 43" fill="none" xmlns="http://www.w3.org/2000/svg">
<g clip-path="url(#clip0_1_88)">
<path d="M27.2184 9.27509C27.2184 9.84023 26.7613 10.2973 26.1962 10.2973C25.9552 10.2973 25.7391 10.2142 25.5646 10.0812C25.5563 10.0729 25.548 10.0646 25.5397 10.0563C23.6947 8.5853 21.351 7.70436 18.8079 7.70436C12.8491 7.70436 8.01221 12.5412 8.01221 18.5001C8.01221 22.3563 10.0317 25.7388 13.0652 27.6502L13.0485 27.6835C13.4724 27.7998 13.7799 28.1988 13.7799 28.6642C13.7799 29.2293 13.3311 29.6864 12.7826 29.6864C12.6081 29.6864 12.4502 29.6448 12.3089 29.5617C12.284 29.5451 12.2507 29.5285 12.2258 29.5119C8.49423 27.2679 5.98438 23.1707 5.98438 18.4918C5.98438 11.411 11.7271 5.66821 18.8079 5.66821C21.8414 5.66821 24.6338 6.72368 26.8278 8.48557C26.8361 8.48557 26.8444 8.49388 26.8528 8.50219C27.0772 8.68503 27.2184 8.9676 27.2184 9.27509Z" fill="white"/>
<path d="M23.9431 37.9972H14.0366C13.5878 37.9972 13.2305 37.6315 13.2305 37.1911V37.0664C13.2305 36.6176 13.5961 36.2603 14.0366 36.2603H23.9431C24.3919 36.2603 24.7492 36.6259 24.7492 37.0664V37.1994C24.7492 37.6399 24.3919 37.9972 23.9431 37.9972Z" fill="white"/>
<path d="M23.9431 40.4988H14.0366C13.5878 40.4988 13.2305 40.1331 13.2305 39.6927V39.5597C13.2305 39.1109 13.5961 38.7535 14.0366 38.7535H23.9431C24.3919 38.7535 24.7492 39.1192 24.7492 39.5597V39.6927C24.7492 40.1414 24.3919 40.4988 23.9431 40.4988Z" fill="white"/>
<path d="M21.5741 43.0004H16.4048C15.956 43.0004 15.5986 42.6347 15.5986 42.1942V42.0613C15.5986 41.6125 15.9643 41.2551 16.4048 41.2551H21.5741C22.0229 41.2551 22.3802 41.6208 22.3802 42.0613V42.1942C22.3802 42.643 22.0146 43.0004 21.5741 43.0004Z" fill="white"/>
<path d="M23.5277 15.0512C21.9736 16.115 21.3752 18.4005 21.0677 20.5945C20.8599 22.0572 20.0288 23.3038 19.1728 24.2346L19.098 24.218L19.7213 22.2068C20.1203 20.528 19.5801 19.2482 18.9484 18.3838C18.4913 17.7522 17.9761 17.3284 17.5855 17.0707C17.2863 16.6635 17.278 16.1233 17.5522 15.7576C17.8846 15.3089 18.5744 15.1842 19.098 15.5416C19.8875 15.6828 21.4334 18.4919 21.4334 18.4919L21.8572 16.9793C21.7076 16.6801 20.968 15.8407 20.2615 15.0761C19.7878 14.5692 19.339 14.0705 18.8903 13.6218C18.6991 13.1148 18.8321 12.5331 19.2227 12.1757C19.6465 11.7851 20.2865 11.7103 20.8017 12.0095C21.9237 12.9818 22.8213 14.029 23.5277 15.0512Z" fill="#429AD9"/>
<path d="M28.9458 19.198C28.5136 21.0846 27.4499 22.6138 26.4027 23.6609C24.9234 25.1403 24.2253 23.9934 23.9677 23.5612C23.7017 23.1374 24.2336 20.1704 24.2336 20.1704C24.3499 19.223 24.6242 18.3171 24.9566 17.5193C26.0038 19.7382 26.2116 21.4253 26.2116 21.4253C26.5606 19.4058 26.2116 17.6356 25.5966 16.1812C26.1451 15.1756 26.6354 14.544 26.6354 14.544C25.9041 14.411 25.2724 14.4193 24.7239 14.544C23.4607 12.591 21.9232 11.5106 21.9232 11.5106C21.6988 10.9371 21.89 10.2723 22.3886 9.91489C22.8789 9.56584 23.5355 9.59908 24.0175 9.96476C27.8239 12.8237 28.9375 19.0568 28.9375 19.0568C28.9375 19.0568 28.9375 19.1066 28.9458 19.198Z" fill="#429AD9"/>
<path d="M31.6485 20.3114C30.726 25.0568 25.9224 29.9685 25.9224 29.9685C25.9224 29.9685 25.59 30.3342 25.2326 30.9741C24.8753 31.614 24.5096 32.5365 24.4431 33.6336V35.7362H13.7139V31.4229C13.7139 31.4229 13.8136 28.3645 17.0049 26.1206C17.0049 26.1206 18.1186 25.4557 19.1907 24.3005C20.0467 23.3697 20.8861 22.1231 21.0855 20.6604C21.393 18.4664 21.9914 16.1809 23.5455 15.1171C23.8946 14.8844 24.2852 14.7016 24.734 14.6019C25.2825 14.4772 25.9224 14.4689 26.6455 14.6019C26.6455 14.6019 26.1468 15.2335 25.6066 16.2391C25.3905 16.6297 25.1661 17.0868 24.9667 17.5771C24.6342 18.375 24.36 19.2808 24.2436 20.2283C24.2436 20.2283 23.7201 23.1952 23.9777 23.6191C24.2436 24.0512 24.9334 25.1981 26.4127 23.7188C27.4599 22.6716 28.532 21.1425 28.9558 19.2559C29.1304 18.4747 29.1969 17.6353 29.1138 16.7377C28.9226 16.1061 28.6816 15.4163 28.3741 14.6767C27.9669 13.7209 27.5181 12.8898 27.0859 12.1834C26.9114 11.6931 27.0028 11.1529 27.3352 10.8038C27.7757 10.3384 28.5736 10.2636 29.1802 10.7041C31.9477 15.1005 32.0558 18.2503 31.6485 20.3114Z" fill="white"/>
<path d="M16.2456 3.79807L16.1791 3.80638C15.9381 3.83131 15.7137 3.65679 15.6888 3.41577L15.3481 0.506999C15.3231 0.265987 15.4977 0.0415955 15.7387 0.0166632L15.8052 0.00835238C16.0462 -0.01658 16.2706 0.157946 16.2955 0.398959L16.6362 3.30773C16.6612 3.54875 16.4866 3.76483 16.2456 3.79807Z" fill="white"/>
<path d="M11.3111 5.63509L11.2446 5.66833C11.0285 5.77637 10.7626 5.69326 10.6462 5.46887L9.33313 2.85098C9.22509 2.63489 9.30819 2.36895 9.53258 2.2526L9.59907 2.21936C9.81515 2.11132 10.0811 2.19442 10.1974 2.41881L11.5106 5.03671C11.6186 5.2611 11.5272 5.52705 11.3111 5.63509Z" fill="white"/>
<path d="M7.29589 9.0508L7.24603 9.10067C7.07981 9.27519 6.79724 9.2835 6.61441 9.11729L4.48685 7.10608C4.31232 6.93986 4.30401 6.65729 4.47022 6.47446L4.52009 6.42459C4.6863 6.25006 4.96887 6.24175 5.15171 6.40797L7.27927 8.41918C7.4538 8.59371 7.46211 8.86796 7.29589 9.0508Z" fill="white"/>
<path d="M4.69509 13.6296L4.67016 13.6961C4.57043 13.9205 4.3128 14.0285 4.08841 13.9288L1.39571 12.7653C1.17132 12.6655 1.06328 12.4079 1.16301 12.1835L1.18794 12.117C1.28767 11.8926 1.54531 11.7846 1.7697 11.8843L4.46239 13.0478C4.68678 13.1476 4.79482 13.4052 4.69509 13.6296Z" fill="white"/>
<path d="M3.8137 18.8236L3.80539 18.8984C3.78877 19.1394 3.581 19.3305 3.33168 19.3139L0.414593 19.1394C0.173581 19.1228 -0.017567 18.915 -0.000945488 18.6657L0.00736529 18.5909C0.0239868 18.3498 0.231756 18.1587 0.48108 18.1753L3.40647 18.3499C3.64749 18.3748 3.83032 18.5826 3.8137 18.8236Z" fill="white"/>
<path d="M4.76981 24.0097L4.78643 24.0761C4.85291 24.3089 4.71994 24.5582 4.48724 24.6247L1.6782 25.464C1.44549 25.5305 1.19617 25.3976 1.12968 25.1649L1.11306 25.0984C1.04658 24.8657 1.17955 24.6163 1.41225 24.5499L4.2213 23.7105C4.454 23.644 4.69501 23.777 4.76981 24.0097Z" fill="white"/>
<path d="M7.43783 28.5561L7.47939 28.6143C7.62898 28.8137 7.58743 29.088 7.38797 29.2376L5.03602 30.9828C4.83656 31.1324 4.5623 31.0909 4.41271 30.8914L4.37116 30.8332C4.22156 30.6338 4.26312 30.3595 4.46257 30.2099L6.81453 28.4647C7.01398 28.3151 7.28824 28.3566 7.43783 28.5561Z" fill="white"/>
<path d="M11.4925 31.9137L11.5506 31.9552C11.7584 32.0882 11.8083 32.3625 11.6753 32.5702L10.063 35.0136C9.93004 35.2214 9.65579 35.2712 9.44802 35.1383L9.38984 35.0967C9.18207 34.9637 9.13221 34.6895 9.26518 34.4817L10.8775 32.0383C11.0188 31.8389 11.293 31.7807 11.4925 31.9137Z" fill="white"/>
<path d="M26.6678 31.8053L26.7343 31.7721C26.9504 31.664 27.2163 31.7472 27.3327 31.9716L28.6458 34.5894C28.7538 34.8055 28.6707 35.0715 28.4463 35.1878L28.3798 35.2211C28.1637 35.3291 27.8978 35.246 27.7814 35.0216L26.4684 32.4037C26.3603 32.1793 26.4517 31.9134 26.6678 31.8053Z" fill="white"/>
<path d="M30.682 28.3899L30.7318 28.34C30.8981 28.1655 31.1806 28.1572 31.3635 28.3234L33.491 30.3346C33.6655 30.5008 33.6739 30.7834 33.5076 30.9662L33.4578 31.0161C33.2916 31.1906 33.009 31.1989 32.8262 31.0327L30.6986 29.0215C30.5158 28.847 30.5158 28.5644 30.682 28.3899Z" fill="white"/>
<path d="M33.2841 23.8101L33.309 23.7436C33.4088 23.5192 33.6664 23.4112 33.8908 23.5109L36.5835 24.6744C36.8079 24.7741 36.9159 25.0318 36.8162 25.2562L36.7912 25.3227C36.6915 25.5471 36.4339 25.6551 36.2095 25.5554L33.5168 24.3919C33.2924 24.2921 33.1844 24.0345 33.2841 23.8101Z" fill="white"/>
<path d="M34.1641 18.6079L34.1724 18.5331C34.1891 18.2921 34.3968 18.101 34.6462 18.1176L37.5716 18.2921C37.8126 18.3087 38.0037 18.5165 37.9871 18.7658L37.9788 18.8406C37.9622 19.0816 37.7544 19.2728 37.5051 19.2562L34.5797 19.0816C34.3304 19.065 34.1475 18.8572 34.1641 18.6079Z" fill="white"/>
<path d="M33.2085 13.4302L33.1919 13.3638C33.1254 13.1311 33.2584 12.8817 33.4911 12.8152L36.3001 11.9759C36.5328 11.9094 36.7822 12.0423 36.8486 12.275L36.8653 12.3415C36.9318 12.5742 36.7988 12.8236 36.5661 12.89L33.7571 13.7294C33.5244 13.7959 33.275 13.6629 33.2085 13.4302Z" fill="white"/>
<path d="M30.5409 8.88445L30.4993 8.82628C30.3497 8.62682 30.3913 8.35256 30.5908 8.20297L32.9427 6.4577C33.1422 6.30811 33.4164 6.34966 33.566 6.54912L33.6076 6.6073C33.7572 6.80676 33.7156 7.08101 33.5162 7.23061L31.1642 8.97587C30.9647 9.12547 30.6905 9.08391 30.5409 8.88445Z" fill="white"/>
<path d="M26.4773 5.52688L26.4191 5.48532C26.2114 5.35235 26.1615 5.07809 26.2945 4.87032L27.9068 2.42695C28.0397 2.21918 28.314 2.16932 28.5218 2.30229L28.5799 2.34385C28.7877 2.47682 28.8376 2.75107 28.7046 2.95884L27.1006 5.40221C26.9593 5.60167 26.6851 5.65985 26.4773 5.52688Z" fill="white"/>
<path d="M21.5156 3.75653L21.4491 3.7399C21.2081 3.68173 21.0668 3.44072 21.1167 3.20801L21.7981 0.357415C21.8563 0.116402 22.0973 -0.0248809 22.33 0.0249838L22.3965 0.0416053C22.6375 0.0997808 22.7788 0.340794 22.729 0.573496L22.0475 3.42409C21.9976 3.66511 21.7566 3.8147 21.5156 3.75653Z" fill="white"/>
</g>
<defs>
<clipPath id="clip0_1_88">
<rect width="37.9803" height="43" fill="white"/>
</clipPath>
</defs>
</svg>
